# xmcd
#
# Track frame offsets:
#	150
#	21576
#	48035
#	72309
#	93958
#	119377
#	145686
#	168122
#	194876
#	214040
#	237582
#	262956
#	282452
#
# Disc length: 4007 seconds
#
# Revision: 1
# Processed by: cddbd v1.5.2PL0 Copyright (c) Steve Scherf et al.
# Submitted via: EasyCDDAExtractor 16.0.9.1
#
DISCID=c20fa50d
DTITLE=Various Artist - Bến Xuân
DYEAR=2007
DGENRE=Pop
TTITLE0=Quang Lê - Xuân Này Con Không Về
TTITLE1=Hương Lan and Chế Linh - Liên Khúc: Cám Ơn and Mùa Xuân Của Mẹ
TTITLE2=Phương Hồng Quế and Ngọc Đan Thanh - Liên Khúc: Phút Giao Mùa and Ngày Đầu
TTITLE2=Một Năm
TTITLE3=Hà Thanh - Hoa Xuân
TTITLE4=Khánh Ly and Trần Thái Hòa - Bến Xuân
TTITLE5=Khánh Hà, Thúy Anh and Lưu Bích - Tiếng Sáo Thiên Thai
TTITLE6=Khánh Ly, Hoàng Oanh, Hương Lan, Phương Hồng Quế - Xuân Miền Nam
TTITLE7=Hương Thủy - Vọng Cổ: Tình Xuân
TTITLE8=Mạnh Quỳnh and Hà Phương - Ngày Xuân Tái Ngộ
TTITLE9=Hoàng Oanh and Trung Chỉnh - Hạnh Phúc Đầu Xuân
TTITLE10=Thế Sơn and Tâm Đoan - Đám Cưới Đầu Xuân
TTITLE11=Xuân Mai - Tuổi Mùa Xuân
TTITLE12=Hợp Ca - Mừng Nắng Xuân Về
EXTD=
EXTT0=
EXTT1=
EXTT2=
EXTT3=
EXTT4=
EXTT5=
EXTT6=
EXTT7=
EXTT8=
EXTT9=
EXTT10=
EXTT11=
EXTT12=
PLAYORDER=
